# xmcd CD database file
#
# Track frame offsets:
#	150
#	6922
#	24785
#	40730
#	58985
#	72630
#	86957
#	103065
#	115705
#	128572
#	144847
#	159612
#	169807
#	185110
#	197572
#
# Disc length: 2685 seconds
#
# Revision: 1
# Processed by: cddbd v1.5.2PL0 Copyright (c) Steve Scherf et al.
# Submitted via: CDex 1.51
#
DISCID=cf0a7b0f
DTITLE=Unknown Hinson - The Future Is Unknown...
DYEAR=2004
DGENRE=Country
TTITLE0=I Ain't Afraid of Your Husband
TTITLE1=I Make Faces (When I Make Love)
TTITLE2=Poly Urethane
TTITLE3=Hippie Girl
TTITLE4=Your Man Is Gay
TTITLE5=Lingerie
TTITLE6=Venus Bound
TTITLE7=Foggy Windows
TTITLE8=I Cleaned Out A Room (In My Trailer For You)
TTITLE9=Man To Man
TTITLE10=Peace, Love and Hard Liquor
TTITLE11=Pregnant Again
TTITLE12=I Quit All That Mess
TTITLE13=Rock 'N Roll Is Straight From Hell
TTITLE14=Unknown Hinson Theme (Instrumental)
EXTD=YEAR: 2004
EXTT0=
EXTT1=
EXTT2=
EXTT3=
EXTT4=
EXTT5=
EXTT6=
EXTT7=
EXTT8=
EXTT9=
EXTT10=
EXTT11=
EXTT12=
EXTT13=
EXTT14=
PLAYORDER=
